<svg width="120" height="28" viewBox="0 0 120 28" fill="none" xmlns="http://www.w3.org/2000/svg">
<circle cx="14.4675" cy="13.8186" r="13.8186" fill="#FAC70F"/>
<path d="M17.506 14.9064L17.8663 12.5571H15.6133V11.0347C15.5977 10.8594 15.6217 10.6828 15.6835 10.5181C15.7454 10.3533 15.8434 10.2045 15.9705 10.0827C16.0975 9.96091 16.2503 9.86923 16.4176 9.81443C16.5848 9.75963 16.7622 9.74311 16.9367 9.76609H17.961V7.76527C17.3595 7.66879 16.7518 7.61645 16.1427 7.60865C15.7236 7.57667 15.3025 7.63726 14.9095 7.78613C14.5164 7.935 14.1609 8.16851 13.8681 8.4701C13.5753 8.7717 13.3524 9.13399 13.2153 9.53132C13.0782 9.92864 13.0301 10.3513 13.0745 10.7692V12.5586H11.0126V14.9079H13.0753V20.5838H15.6133V14.9064H17.506Z" fill="black"/>
<circle cx="105.533" cy="13.8186" r="13.8186" fill="#FAC70F"/>
<path d="M105.707 12.3947C105.391 12.3947 105.082 12.4884 104.819 12.664C104.556 12.8396 104.351 13.0892 104.23 13.3812C104.109 13.6733 104.078 13.9946 104.139 14.3046C104.201 14.6146 104.353 14.8993 104.577 15.1228C104.8 15.3463 105.085 15.4985 105.395 15.5602C105.705 15.6219 106.026 15.5902 106.318 15.4693C106.61 15.3483 106.86 15.1435 107.036 14.8807C107.211 14.6179 107.305 14.3089 107.305 13.9928C107.305 13.7829 107.264 13.5751 107.183 13.3812C107.103 13.1873 106.985 13.0112 106.837 12.8628C106.689 12.7144 106.512 12.5967 106.318 12.5163C106.125 12.436 105.917 12.3947 105.707 12.3947ZM105.707 11.3293C106.234 11.3293 106.749 11.4855 107.187 11.7782C107.625 12.0708 107.966 12.4868 108.168 12.9735C108.369 13.4602 108.422 13.9958 108.319 14.5124C108.216 15.0291 107.963 15.5037 107.59 15.8762C107.218 16.2487 106.743 16.5024 106.226 16.6051C105.71 16.7079 105.174 16.6552 104.688 16.4536C104.201 16.252 103.785 15.9106 103.492 15.4726C103.2 15.0346 103.043 14.5196 103.043 13.9928C103.043 13.643 103.112 13.2967 103.246 12.9735C103.38 12.6504 103.576 12.3567 103.823 12.1094C104.323 11.6099 105 11.3293 105.707 11.3293ZM109.169 11.1961C109.169 11.3278 109.13 11.4566 109.057 11.5661C108.984 11.6756 108.88 11.7609 108.758 11.8113C108.637 11.8617 108.503 11.8749 108.374 11.8492C108.244 11.8235 108.126 11.7601 108.033 11.667C107.94 11.5738 107.876 11.4552 107.85 11.326C107.825 11.1969 107.838 11.063 107.888 10.9413C107.939 10.8196 108.024 10.7156 108.134 10.6425C108.243 10.5693 108.372 10.5302 108.504 10.5302C108.591 10.5302 108.678 10.5475 108.758 10.5809C108.839 10.6144 108.913 10.6634 108.974 10.7253C109.036 10.7871 109.085 10.8605 109.119 10.9413C109.152 11.0221 109.169 11.1087 109.169 11.1961ZM105.707 9.73118C104.391 9.73118 104.174 9.73118 103.561 9.76215C103.234 9.76647 102.91 9.82616 102.603 9.93869C102.387 10.0222 102.191 10.1499 102.028 10.3135C101.864 10.477 101.736 10.673 101.653 10.8887C101.54 11.1957 101.48 11.5196 101.476 11.8465C101.448 12.435 101.445 12.6401 101.445 13.9928C101.445 15.3091 101.445 15.5259 101.476 16.1391C101.481 16.4658 101.541 16.7893 101.653 17.0961C101.736 17.312 101.863 17.508 102.027 17.6717C102.19 17.8353 102.386 17.9629 102.602 18.0462C102.909 18.1589 103.233 18.2189 103.561 18.2235C104.149 18.2513 104.354 18.2544 105.707 18.2544C107.023 18.2544 107.24 18.2544 107.853 18.2235C108.18 18.2187 108.503 18.1591 108.81 18.0469C109.027 17.9666 109.224 17.8389 109.385 17.673C109.552 17.5118 109.68 17.3152 109.76 17.0977C109.873 16.7903 109.932 16.4663 109.937 16.1391C109.965 15.5507 109.968 15.3455 109.968 13.9928C109.968 12.6765 109.968 12.4597 109.937 11.8465C109.932 11.5196 109.873 11.1957 109.76 10.8887C109.68 10.6713 109.552 10.4747 109.385 10.3134C109.224 10.1467 109.028 10.0186 108.81 9.93869C108.503 9.82613 108.179 9.76644 107.852 9.76215C107.265 9.73428 107.06 9.73118 105.707 9.73118ZM105.707 8.66577C107.154 8.66577 107.333 8.67119 107.903 8.69752C108.345 8.7067 108.782 8.79046 109.196 8.94529C109.552 9.07846 109.874 9.28806 110.14 9.55929C110.411 9.82565 110.621 10.148 110.755 10.5039C110.91 10.918 110.994 11.3551 111.003 11.797C111.028 12.3645 111.035 12.5457 111.035 13.9928C111.035 15.4399 111.029 15.6188 111.003 16.1887C110.993 16.6305 110.91 17.0676 110.755 17.4817C110.619 17.8361 110.409 18.158 110.141 18.4265C109.872 18.6951 109.55 18.9045 109.196 19.0411C108.782 19.1957 108.345 19.2795 107.903 19.2889C107.335 19.3137 107.154 19.3206 105.707 19.3206C104.26 19.3206 104.081 19.3152 103.511 19.2889C103.069 19.2794 102.632 19.1957 102.218 19.0411C101.864 18.9045 101.543 18.6953 101.274 18.427C101.006 18.1587 100.797 17.8372 100.66 17.4833C100.505 17.0693 100.421 16.6321 100.412 16.1902C100.387 15.6203 100.38 15.4399 100.38 13.9928C100.38 12.5457 100.385 12.3668 100.412 11.797C100.421 11.3551 100.504 10.9179 100.659 10.5039C100.796 10.1497 101.005 9.82808 101.274 9.55964C101.542 9.29121 101.864 9.08193 102.218 8.94529C102.632 8.79042 103.069 8.70665 103.511 8.69752C104.079 8.67274 104.26 8.66577 105.707 8.66577Z" fill="black"/>
<circle cx="60" cy="13.8186" r="13.8186" fill="#FAC70F"/>
<path d="M65.586 10.6129C65.1792 10.7929 64.7478 10.9111 64.3061 10.9637C64.7729 10.6852 65.1222 10.2461 65.2887 9.72869C64.8516 9.98884 64.3731 10.1722 63.8741 10.2707C63.5386 9.91286 63.0944 9.67577 62.6104 9.59618C62.1265 9.51659 61.6298 9.59896 61.1974 9.8305C60.765 10.062 60.4211 10.4298 60.2191 10.8768C60.0171 11.3237 59.9682 11.8248 60.0801 12.3024C59.1943 12.2579 58.3278 12.0276 57.5368 11.6265C56.7458 11.2254 56.048 10.6624 55.4886 9.97413C55.2037 10.4647 55.1164 11.0453 55.2444 11.5979C55.3724 12.1505 55.7062 12.6336 56.1777 12.9489C55.8248 12.9373 55.4798 12.8418 55.1712 12.6702V12.698C55.1707 13.2119 55.3478 13.7101 55.6724 14.1085C55.9971 14.5068 56.4494 14.7807 56.9528 14.8838C56.6245 14.9728 56.2804 14.986 55.9462 14.9225C56.0882 15.3656 56.3652 15.7531 56.7384 16.0308C57.1116 16.3085 57.5624 16.4624 58.0275 16.4711C57.5654 16.8341 57.0364 17.1024 56.4705 17.2608C55.9047 17.4191 55.3132 17.4644 54.7298 17.394C55.7482 18.0488 56.9337 18.3964 58.1444 18.3952C58.9789 18.401 59.8061 18.2408 60.5781 17.924C61.3501 17.6072 62.0514 17.14 62.6413 16.5498C63.2311 15.9595 63.6977 15.2578 64.014 14.4856C64.3302 13.7134 64.4898 12.886 64.4834 12.0515C64.4834 11.9555 64.4834 11.8587 64.4765 11.7635C64.9116 11.4491 65.2873 11.0597 65.586 10.6137V10.6129Z" fill="black"/>
</svg>
